<svg xmlns="http://www.w3.org/2000/svg" viewBox="0 0 655.16 374.97"><defs><style>.cls-1{fill:#2c4875;}</style></defs><title>Asset 1</title><g id="Layer_2" data-name="Layer 2"><g id="Layer_1-2" data-name="Layer 1"><path class="cls-1" d="M.39,49.14c6.16-.38,9.92-4.24,11.85-10A70.7,70.7,0,0,0,14.84,30c1.44-6.46,3.85-14.55,7.71-19.56Q30.5,0,49.72,0A185.28,185.28,0,0,1,69.38,1.45V50.59l5.3.48V69.86H38.83V51.07l3.38-.48,2.31-25h-.77c-1.83,0-3.38,1.93-4.44,5.78s-2.31,8.77-3.66,15a62.29,62.29,0,0,1-4.72,14.64c-3.37,6.84-8.86,10.22-16.28,10.22C4.91,71.31,0,65.14,0,55.12A48.51,48.51,0,0,1,.39,49.14Z"/><path class="cls-1" d="M79.59,46.93a40.55,40.55,0,0,0,14.75,2.79,26.87,26.87,0,0,0,7-.77v-.39l-7-7.8L84.8,20.91l-5.4-.67V1.45h24.38l10.5,26.3,8.1-26.3h24.67V20.33l-4.53.58L132.4,47.41c-3.47,9-8.19,15.22-14.07,18.69S105,71.31,96,71.31A73,73,0,0,1,77.57,68.9Z"/><path class="cls-1" d="M149,2.7A40,40,0,0,1,155.14,1a43.71,43.71,0,0,1,9.35-1c14,0,16.19,8.58,16.19,18.31v3.37c0,5.78,2,7.42,8.28,7.42a29.16,29.16,0,0,0,5.79-.58V1.45h32.57V20.24l-5.3.48V38.64l-1,10.7h6.27V53c0,12.24-5.4,18.31-16.29,18.31S194.75,65.24,194.75,53V50.78a92.42,92.42,0,0,1-12.15.68c-11.27,0-19.07-2.51-23-7.13s-5.2-9.54-5.2-16.58V26.4c0-1.83-.67-2.79-2.12-2.79a6.07,6.07,0,0,0-2.12.48Z"/><path class="cls-1" d="M231.17,23.22v-6C231.17,5.69,237.34,0,247.36,0c6.55,0,11,2.12,13.2,5.88s2.89,7.42,2.89,12.33v22q0,6.36,5.78,6.36c3.57,0,5.69-2.5,5.69-6.36V20.72l-5.3-.48V1.45h31.6V40.18q0,6.36,5.79,6.36c3.56,0,5.68-2.5,5.68-6.36V20.72l-5.3-.48V1.45H339V38.64l-1,10.7h6.27v4.24c0,5.3-.58,9-2.41,12.43s-5.4,5.3-10.51,5.3c-8,0-12.62-5.11-13.39-12.53h-.67A29.29,29.29,0,0,1,310,67.93c-2.89,2.22-6.94,3.38-12.24,3.38-9.34,0-14.26-4.44-17.05-12.53h-.87a24,24,0,0,1-6.55,8.38c-3.08,2.7-7.9,4.15-14.07,4.15-17.25,0-22.06-12.15-22.06-22.65V23.22Z"/><path class="cls-1" d="M346.71,20.24V1.45h32.57V39.89c0,5,2.12,7.52,6.45,7.52a7.26,7.26,0,0,0,6.17-3V13l-5.2-6.84L419.17,0V38.64l-1,10.7h6.26V53c0,12-4.82,18.11-14.55,18.11-6.94,0-11.47-3.56-13.59-10.79h-.57c-2.22,6.46-9.26,11-19.28,11a27.56,27.56,0,0,1-16.18-4.92c-5-3.47-8.29-10.69-8.29-20.33V20.72Z"/><path class="cls-1" d="M437.67,10.41C444.9,3.47,454.44,0,466.1,0c18.21,0,27.17,9,27.17,22.45,0,13.2-11.37,22.55-35.65,23.71,1.16,1.92,4.05,2.89,8.67,2.89a40,40,0,0,0,13-2.22,53,53,0,0,0,10.41-4.91l2.89,23.22c-2.89,1.44-7.23,2.79-13.11,4.14a74,74,0,0,1-16.57,2c-11.95,0-20.91-3.09-27-9.16s-9.06-14.45-9.06-24.76C426.88,26.31,430.45,17.34,437.67,10.41Zm28.82,13.1a3.79,3.79,0,0,0-4.15-4.14c-4.53,0-8.09,4.05-8,10.89C462.44,30,466.49,27.66,466.49,23.51Z"/><path class="cls-1" d="M33.73,126.5,39,127v18.79H1.16V127l5.3-.48V93L1,77.36H27l1.45,11.08h.38c3.08-5.88,8.58-12.53,21.78-12.53,17.25,0,23,12.15,23,22.65v16l-1,10.7h6.26v3.66c0,9.25-3.18,18.31-16.29,18.31s-16.28-9.06-16.28-18.31V107c0-4.24-2.8-6.36-6.36-6.36A6,6,0,0,0,33.73,107Z"/><path class="cls-1" d="M81.81,145.77V127l5.3-.48V96.63l-5.3-.48V77.36h43.46c15.13,0,23.61,8.77,23.61,24.09,0,7.32-2.51,13.3-7.61,17.83s-11.86,6.93-20.53,7.32l-6.36.29v18.88Zm32-37.09h4c4,0,6.56-2.41,6.56-6.94,0-3.95-1.93-5.88-5.88-5.88H113.8Z"/><path class="cls-1" d="M163.72,86.61q12-10.69,33.44-10.7a180.13,180.13,0,0,1,23.12,1.45v37.19l-1,10.7h6.26v3.66C225.58,141,220.76,147,211,147c-6.94,0-11.47-3.57-13.59-10.79-4.33,7.32-12.43,11-20.23,11-15.52,0-25.44-11-25.44-30.64C151.77,103.76,155.72,93.74,163.72,86.61Zm20.91,35.46c5,0,9.15-4.82,9.15-12.14V100.2a22.93,22.93,0,0,0-2.41-.2c-4,0-7.22,1.35-9.44,4a14.59,14.59,0,0,0-3.37,9.54C178.56,119.28,180.58,122.07,184.63,122.07Z"/><path class="cls-1" d="M228.47,145.77V127l5.3-.48V96.63l-5.3-.48V77.36H261v23.8h.39c6.36-10,6.45-25.25,23.32-25.25,9.83,0,15.32,6.17,15.32,14.55,0,7.91-4.44,13.88-12.43,13.88a12.38,12.38,0,0,1-9.06-3.66,13.45,13.45,0,0,1-6.17,6.17v.38c15.52,6,13.78,17.73,27,18.69.87,13.3-3.18,21.3-14.84,21.3-20.91,0-15.32-26-22.45-26h-.77l.29,24.57Z"/><path class="cls-1" d="M302.48,77.36h26l1.44,11.08h.39a22.85,22.85,0,0,1,21-12.53c9.93,0,15.9,4.15,18,12.53h.87c4.34-8.38,11.66-12.53,21.78-12.53,17.25,0,23,12.15,23,22.65v16l-1,10.7h6.27v3.66c0,12.24-5.4,18.31-16.29,18.31s-16.28-6.07-16.28-18.31V107c0-4.14-2.6-6.36-6.36-6.36a6,6,0,0,0-6.27,6.36V126.5l5.3.48v18.79H347.86V107c0-4.14-2.6-6.36-6.36-6.36a6,6,0,0,0-6.26,6.36V126.5l5.3.48v18.79H302.67V127l5.3-.48V93Z"/><path class="cls-1" d="M422.74,96.15V77.36h32.57v38.45c0,5,2.12,7.51,6.45,7.51a7.28,7.28,0,0,0,6.17-3V88.92l-5.2-6.84,32.47-6.17v38.64l-1,10.7h6.26v3.66C500.5,141,495.68,147,486,147c-6.94,0-11.47-3.57-13.59-10.79h-.58c-2.21,6.45-9.25,11-19.27,11a27.65,27.65,0,0,1-16.19-4.91c-5-3.47-8.28-10.7-8.28-20.34V96.63Z"/><path class="cls-1" d="M503.39,145.77V127l5.3-.48V96.63l-5.3-.48V77.36H536v23.8h.39c6.36-10,6.45-25.25,23.32-25.25,9.82,0,15.32,6.17,15.32,14.55,0,7.91-4.44,13.88-12.43,13.88a12.38,12.38,0,0,1-9.06-3.66,13.45,13.45,0,0,1-6.17,6.17v.38c15.52,6,13.78,17.73,27,18.69.87,13.3-3.18,21.3-14.84,21.3-20.91,0-15.32-26-22.45-26h-.77l.29,24.57Z"/><path class="cls-1" d="M577.4,96.15V77.36H610v38.45c0,5,2.12,7.51,6.45,7.51a7.29,7.29,0,0,0,6.17-3V88.92l-5.2-6.84,32.47-6.17v38.64l-1,10.7h6.26v3.66c0,12.05-4.82,18.12-14.55,18.12-6.94,0-11.47-3.57-13.59-10.79h-.58c-2.21,6.45-9.25,11-19.27,11A27.65,27.65,0,0,1,591,142.31c-5-3.47-8.28-10.7-8.28-20.34V96.63Z"/><path class="cls-1" d="M2.6,199.72a9.39,9.39,0,0,0,3.28.48c2.21,0,3.37-.87,3.37-2.6v-25L4,172.06V153.27H34.69l16.86,25.92,16.87-25.92H99.15v18.79l-5.3.49v25c0,1.73,1.16,2.6,3.38,2.6a9.36,9.36,0,0,0,3.27-.48l1.16,21.39c-3,1.35-7.52,2-13.68,2-13.59,0-20.14-4.24-20.14-17.63a54.49,54.49,0,0,1,.67-8.67h-.38L51.55,219.38,35,196.83h-.39a54.53,54.53,0,0,1,.68,8.67c0,13.39-6.56,17.63-20.14,17.63-6.17,0-10.7-.67-13.68-2Z"/><path class="cls-1" d="M117,162.52c8-7.13,19.18-10.69,33.44-10.69a179.93,179.93,0,0,1,23.12,1.44v37.2l-1,10.69h6.26v3.67c0,12-4.81,18.11-14.55,18.11-6.93,0-11.46-3.56-13.58-10.79-4.34,7.32-12.43,11-20.24,11-15.51,0-25.44-11-25.44-30.64C105,179.68,109,169.66,117,162.52ZM137.89,198c5,0,9.16-4.81,9.16-12.14v-9.73a23.12,23.12,0,0,0-2.41-.19c-4,0-7.23,1.35-9.45,4.05a14.61,14.61,0,0,0-3.37,9.54C131.82,195.19,133.84,198,137.89,198Z"/><path class="cls-1" d="M180.68,201c6.16-.38,9.92-4.24,11.85-10a70.7,70.7,0,0,0,2.6-9.15c1.45-6.46,3.86-14.55,7.71-19.56q7.95-10.41,27.17-10.41a187.45,187.45,0,0,1,19.66,1.44v49.15l5.3.48v18.79H219.12V202.9l3.38-.48,2.31-25H224c-1.83,0-3.37,1.93-4.43,5.78s-2.32,8.77-3.67,15a61.77,61.77,0,0,1-4.72,14.65c-3.37,6.84-8.86,10.21-16.28,10.21-9.73,0-14.65-6.16-14.65-16.18A48.39,48.39,0,0,1,180.68,201Z"/><path class="cls-1" d="M258.83,221.69V202.9l5.29-.48V172.55l-5.29-.49V153.27H291.4v20h7.8c16.48,0,26.69,8.28,26.69,23.8,0,7.71-2.31,13.78-7,18.11s-10.79,6.46-18.31,6.46Zm32-18.12h4.72c4.34,0,5.78-2.21,5.78-6.36,0-3.85-2.12-6.16-5.69-6.16h-4.81Zm34-43.84c12.63,0,23.32-2.6,31.9-7.9v38.64l-1,10.69H362v3.67c0,12.23-5.4,18.3-16.29,18.3s-16.28-6.07-16.28-18.3V167Z"/><path class="cls-1" d="M409.82,222.27l-8.19-19.66c-4.82,14.26-12.14,20.52-22.35,20.52-8.77,0-15.32-6.07-15.32-15.61,0-10.4,7.13-15,14.45-15a13.87,13.87,0,0,1,7.71,1.93l-5.88-9.54-15.61-31.61h31.51l8,19.08c4.82-14.26,12.14-20.52,22.35-20.52,8.77,0,15.32,6.07,15.32,15.61,0,10.41-7.13,15-14.45,15a13.89,13.89,0,0,1-7.71-1.93l5.88,9.54,15.61,31.61Z"/><path class="cls-1" d="M34.21,252.8c0-2.7-2.22-4.05-6.75-4.05a38.81,38.81,0,0,0-12.81,2.31,30,30,0,0,0-10.6,5.78l-.58-23.12c8.48-3.95,18.31-6,29.49-6,21.1,0,31.31,8.39,31.31,22.94,0,6.65-1.64,11.27-6.26,15.51s-13.4,6.75-26.5,7.81c0,2.79,2.22,4.14,6.65,4.14a48.15,48.15,0,0,0,12.72-1.93,39.84,39.84,0,0,0,11.56-5.11L63.5,294c-8.09,3.37-18.4,5-31,5-22,0-31.51-8.77-31.51-22.93C1,262.34,12,254.53,34.21,252.8Z"/><path class="cls-1" d="M75.16,238.63c7.61-8.19,18.21-11.08,28.62-10.89,7.32,0,13.49,1,20,4.44,9.25,4.72,16.09,14.26,16.09,31.79,0,10.8-3.28,19.47-8,24.58-7.61,7.8-18.21,10.69-28.42,10.5-7.33,0-13.59-1.06-20.14-4.24C74.1,290,67.16,280.74,67.16,264,67.16,252.8,70.44,243.74,75.16,238.63Zm28.24,38.64q7.51,0,7.51-13.87c0-9.64-2-13.88-7.32-13.88q-7.52,0-7.52,13.88C96.07,273,98.1,277.27,103.4,277.27Z"/><path class="cls-1" d="M143.19,297.6V278.81l5.3-.48V248.46l-5.3-.48V229.19h43.46c15.13,0,23.61,8.77,23.61,24.09,0,7.32-2.51,13.3-7.61,17.82s-11.85,6.94-20.53,7.33l-6.36.29V297.6Zm32-37.09h3.95c4,0,6.55-2.41,6.55-6.94,0-3.95-1.93-5.88-5.88-5.88h-4.62Z"/><path class="cls-1" d="M221.15,238.63c7.61-8.19,18.21-11.08,28.62-10.89,7.32,0,13.49,1,19.94,4.44,9.26,4.72,16.1,14.26,16.1,31.79,0,10.8-3.28,19.47-8,24.58-7.61,7.8-18.21,10.69-28.43,10.5-7.32,0-13.58-1.06-20.14-4.24-9.15-4.82-16.09-14.07-16.09-30.84C213.15,252.8,216.43,243.74,221.15,238.63Zm28.23,38.64q7.51,0,7.52-13.87c0-9.64-2-13.88-7.32-13.88q-7.52,0-7.52,13.88C242.06,273,244.08,277.27,249.38,277.27Z"/><path class="cls-1" d="M297.08,259.93c5.69-3.66,13.2-5.5,22.65-5.5,2.41,0,4.72.1,7.13.29-1.25-5.1-6.17-6.65-14-6.65a41.53,41.53,0,0,0-17.73,3.76l-3.86-21.1a85.9,85.9,0,0,1,24.09-3c26.21,0,39.89,11.08,39.89,37,0,21.58-12.52,34.3-36.13,34.3-9.25,0-16.67-1.83-22.16-5.4s-8.29-9.15-8.29-16.76S291.49,263.59,297.08,259.93Zm23.61,21.49c4.34,0,6.55-3.76,6.55-11.38-7.22.1-10.79,2.61-10.79,7.33C316.45,280,318.09,281.42,320.69,281.42Z"/><path class="cls-1" d="M366.17,238.63c7.62-8.19,18.22-11.08,28.62-10.89,7.33,0,13.49,1,19.95,4.44,9.25,4.72,16.09,14.26,16.09,31.79,0,10.8-3.27,19.47-8,24.58-7.61,7.8-18.21,10.69-28.42,10.5-7.33,0-13.59-1.06-20.14-4.24-9.16-4.82-16.09-14.07-16.09-30.84C358.18,252.8,361.45,243.74,366.17,238.63Zm28.24,38.64q7.51,0,7.51-13.87c0-9.64-2-13.88-7.32-13.88q-7.52,0-7.52,13.88C387.08,273,389.11,277.27,394.41,277.27Z"/><path class="cls-1" d="M434.21,297.6V278.81l5.3-.48V248.46l-5.3-.48V229.19H478c15.81,0,24.38,6.84,24.38,17.54,0,8.57-3.85,13.49-11.66,14.64v.48c7,.68,15.32,4,15.32,15.61,0,13.4-9.25,20.14-27.65,20.14ZM465,256.55H469c4.34,0,6.55-2,6.55-6.07s-1.92-5.87-5.87-5.87H465Zm2.22,24.58h5c4.33,0,5.78-2.22,5.78-6.36,0-3.86-2.51-6.17-6.46-6.17h-4.33Z"/><path class="cls-1" d="M1.45,373.52V354.73l5.3-.48V324.38l-5.3-.49V305.1H44.9c15.13,0,23.61,8.77,23.61,24.09,0,7.33-2.5,13.3-7.61,17.83S49.05,354,40.37,354.34l-6.36.29v18.89Zm32-37.1h4c4,0,6.55-2.41,6.55-6.94,0-4-1.93-5.88-5.88-5.88H33.44Z"/><path class="cls-1" d="M79.4,314.55C87,306.36,97.61,303.46,108,303.66c7.32,0,13.49,1,20,4.43,9.25,4.72,16.09,14.26,16.09,31.8,0,10.79-3.28,19.46-8,24.57-7.61,7.81-18.21,10.7-28.43,10.5-7.32,0-13.58-1.06-20.13-4.24-9.16-4.81-16.1-14.06-16.1-30.83C71.4,328.71,74.68,319.65,79.4,314.55Zm28.23,38.64q7.53,0,7.52-13.88c0-9.64-2-13.88-7.32-13.88q-7.51,0-7.52,13.88C100.31,349,102.33,353.19,107.63,353.19Z"/><path class="cls-1" d="M155.24,315.22c7.71-8.48,18.69-11.56,28.42-11.56,17.83,0,26.79,6.16,26.79,18.59,0,8.58-5.68,13.88-14.26,13.88-7.32,0-12.62-4.72-14.16-11.66-4.34,1.54-7.33,6.84-7.33,14.07,0,8.77,6.27,14.36,15,14.36,6.08,0,11.28-1.06,15.42-3.18l2.6,22.35A90.52,90.52,0,0,1,185.4,375c-20.72,0-38.45-9.44-38.45-34.88C147,329.39,150.32,320.52,155.24,315.22Z"/><path class="cls-1" d="M221.15,315.22c7.71-8.48,18.69-11.56,28.43-11.56,17.82,0,26.78,6.16,26.78,18.59,0,8.58-5.68,13.88-14.26,13.88-7.32,0-12.62-4.72-14.16-11.66-4.34,1.54-7.33,6.84-7.33,14.07,0,8.77,6.27,14.36,15,14.36,6.07,0,11.27-1.06,15.41-3.18l2.61,22.35A90.66,90.66,0,0,1,251.31,375c-20.72,0-38.45-9.44-38.45-34.88C212.86,329.39,216.24,320.52,221.15,315.22Z"/><path class="cls-1" d="M278.77,323.89V305.1h32.57v38.45c0,5,2.12,7.52,6.46,7.52a7.31,7.31,0,0,0,6.17-3V316.67l-5.21-6.85,32.48-6.16V342.3l-1,10.69h6.27v3.67c0,12-4.82,18.11-14.55,18.11-6.94,0-11.47-3.56-13.59-10.79h-.58c-2.22,6.45-9.25,11-19.27,11a27.58,27.58,0,0,1-16.19-4.91c-5-3.47-8.29-10.7-8.29-20.33V324.38Z"/><path class="cls-1" d="M359,323.89V305.1h32.56v38.45c0,5,2.12,7.52,6.46,7.52a7.3,7.3,0,0,0,6.17-3V316.67l-5.21-6.85,32.48-6.16V342.3l-1,10.69h6.27v3.67c0,12-4.82,18.11-14.55,18.11-6.94,0-11.47-3.56-13.59-10.79H408c-2.21,6.45-9.25,11-19.27,11a27.58,27.58,0,0,1-16.19-4.91c-5-3.47-8.28-10.7-8.28-20.33V324.38Z"/></g></g></svg>