<svg xmlns="http://www.w3.org/2000/svg" viewBox="0 0 200.99 115.03"><defs><style>.cls-1{fill:#fff;}</style></defs><title>Asset 1</title><g id="Layer_2" data-name="Layer 2"><g id="Layer_1-2" data-name="Layer 1"><path class="cls-1" d="M.12,15.07A4,4,0,0,0,3.75,12a21.61,21.61,0,0,0,.8-2.81,16.3,16.3,0,0,1,2.37-6Q9.35,0,15.25,0a58.64,58.64,0,0,1,6,.44V15.52l1.63.14v5.77h-11V15.66l1-.14.7-7.66h-.23c-.56,0-1,.59-1.36,1.78s-.71,2.68-1.12,4.61a19.39,19.39,0,0,1-1.45,4.49,5.21,5.21,0,0,1-5,3.13c-3,0-4.49-1.89-4.49-5A14.67,14.67,0,0,1,.12,15.07Z"/><path class="cls-1" d="M24.42,14.39a12.23,12.23,0,0,0,4.52.86A8.1,8.1,0,0,0,31.1,15V14.9l-2.16-2.4L26,6.41l-1.65-.2V.44h7.48l3.22,8.07L37.54.44h7.57v5.8l-1.39.17-3.1,8.13a11,11,0,0,1-4.32,5.74,13.34,13.34,0,0,1-6.86,1.59,21.92,21.92,0,0,1-5.64-.74Z"/><path class="cls-1" d="M45.7.83A11.2,11.2,0,0,1,47.6.3,13,13,0,0,1,50.46,0c4.29,0,5,2.63,5,5.62v1c0,1.77.62,2.28,2.54,2.28a8.86,8.86,0,0,0,1.77-.18V.44h10V6.21l-1.62.14v5.5l-.3,3.28h1.92v1.13c0,3.75-1.65,5.61-5,5.61s-5-1.86-5-5.61v-.68a29.6,29.6,0,0,1-3.72.2c-3.46,0-5.85-.77-7.06-2.18a7.23,7.23,0,0,1-1.6-5.09V8.1c0-.56-.21-.86-.65-.86a1.8,1.8,0,0,0-.65.15Z"/><path class="cls-1" d="M70.92,7.12V5.29c0-3.55,1.89-5.29,5-5.29,2,0,3.37.65,4,1.8a6.94,6.94,0,0,1,.88,3.79v6.73c0,1.31.59,2,1.78,2a1.73,1.73,0,0,0,1.74-2v-6l-1.63-.14V.44h9.7V12.32c0,1.31.59,2,1.77,2a1.73,1.73,0,0,0,1.75-2v-6L94.3,6.21V.44H104V11.85l-.29,3.28h1.92v1.3a7.76,7.76,0,0,1-.74,3.82,3.39,3.39,0,0,1-3.22,1.62A3.92,3.92,0,0,1,97.55,18h-.21a9.09,9.09,0,0,1-2.24,2.81,6.05,6.05,0,0,1-3.76,1c-2.86,0-4.37-1.36-5.23-3.84h-.26a7.43,7.43,0,0,1-2,2.57,6.49,6.49,0,0,1-4.32,1.27c-5.29,0-6.77-3.72-6.77-6.94V7.12Z"/><path class="cls-1" d="M106.37,6.21V.44h10v11.8c0,1.53.65,2.3,2,2.3a2.23,2.23,0,0,0,1.89-.91V4l-1.6-2.1,10-1.89V11.85l-.29,3.28h1.92v1.13c0,3.69-1.48,5.55-4.46,5.55a4,4,0,0,1-4.17-3.31h-.18c-.68,2-2.84,3.37-5.91,3.37a8.45,8.45,0,0,1-5-1.51C109,19.3,108,17.08,108,14.13V6.35Z"/><path class="cls-1" d="M134.27,3.19A12.1,12.1,0,0,1,143,0c5.59,0,8.34,2.75,8.34,6.89s-3.49,6.91-10.94,7.27c.36.59,1.24.88,2.66.88a12.12,12.12,0,0,0,4-.68,16,16,0,0,0,3.19-1.5l.89,7.12a19.17,19.17,0,0,1-4,1.27,22.92,22.92,0,0,1-5.08.62c-3.67,0-6.42-.94-8.28-2.81A10.36,10.36,0,0,1,131,11.47,11,11,0,0,1,134.27,3.19Zm8.84,4a1.16,1.16,0,0,0-1.27-1.27c-1.39,0-2.48,1.24-2.45,3.34C141.87,9.19,143.11,8.48,143.11,7.21Z"/><path class="cls-1" d="M10.34,38.81,12,39v5.77H.35V39L2,38.81V28.52L.3,23.73h8l.44,3.4h.12c.94-1.8,2.63-3.84,6.68-3.84,5.29,0,7.06,3.72,7.06,7v4.9l-.29,3.28h1.92v1.13c0,2.83-1,5.61-5,5.61s-5-2.78-5-5.61V32.84a1.82,1.82,0,0,0-2-2,1.85,1.85,0,0,0-1.93,2Z"/><path class="cls-1" d="M25.1,44.72V39l1.62-.14V29.64L25.1,29.5V23.73H38.43c4.64,0,7.24,2.69,7.24,7.39a7,7,0,0,1-2.34,5.47A9.69,9.69,0,0,1,37,38.84l-1.95.08v5.8Zm9.81-11.38h1.21a1.9,1.9,0,0,0,2-2.13,1.58,1.58,0,0,0-1.8-1.8H34.91Z"/><path class="cls-1" d="M50.23,26.57c2.45-2.19,5.88-3.28,10.25-3.28a56.16,56.16,0,0,1,7.1.44V35.14l-.3,3.28H69.2v1.13c0,3.69-1.48,5.55-4.46,5.55a4,4,0,0,1-4.17-3.31,7.15,7.15,0,0,1-6.21,3.37c-4.75,0-7.8-3.37-7.8-9.4C46.56,31.83,47.77,28.76,50.23,26.57Zm6.41,10.88c1.54,0,2.81-1.48,2.81-3.73v-3a7.31,7.31,0,0,0-.74-.06,3.55,3.55,0,0,0-2.9,1.24,4.48,4.48,0,0,0-1,2.93C54.78,36.59,55.4,37.45,56.64,37.45Z"/><path class="cls-1" d="M70.09,44.72V39l1.63-.14V29.64l-1.63-.14V23.73h10V31h.12c2-3.07,2-7.74,7.15-7.74,3,0,4.7,1.89,4.7,4.46S90.69,32,88.24,32a3.81,3.81,0,0,1-2.78-1.12,4.09,4.09,0,0,1-1.89,1.89v.12c4.76,1.83,4.23,5.43,8.28,5.73.26,4.08-1,6.53-4.56,6.53-6.41,0-4.7-8-6.88-8h-.24l.09,7.54Z"/><path class="cls-1" d="M92.8,23.73h8l.44,3.4h.12a7,7,0,0,1,6.44-3.84c3,0,4.88,1.27,5.53,3.84h.26a6.94,6.94,0,0,1,6.68-3.84c5.3,0,7.07,3.72,7.07,7v4.9l-.3,3.28h1.92v1.13c0,3.75-1.65,5.61-5,5.61s-5-1.86-5-5.61V32.84a1.8,1.8,0,0,0-2-2,1.85,1.85,0,0,0-1.92,2v6l1.63.14v5.77h-10V32.84a1.8,1.8,0,0,0-2-2,1.85,1.85,0,0,0-1.92,2v6l1.62.14v5.77H92.86V39l1.62-.14V28.52Z"/><path class="cls-1" d="M129.69,29.5V23.73h10v11.8c0,1.53.65,2.3,2,2.3a2.22,2.22,0,0,0,1.89-.91V27.28L142,25.18l10-1.89V35.14l-.3,3.28h1.92v1.13c0,3.69-1.48,5.55-4.46,5.55a4,4,0,0,1-4.17-3.31h-.18c-.67,2-2.83,3.37-5.91,3.37a8.42,8.42,0,0,1-5-1.51c-1.54-1.06-2.54-3.28-2.54-6.23V29.64Z"/><path class="cls-1" d="M154.44,44.72V39l1.62-.14V29.64l-1.62-.14V23.73h10V31h.11c2-3.07,2-7.74,7.16-7.74,3,0,4.7,1.89,4.7,4.46S175,32,172.58,32a3.81,3.81,0,0,1-2.78-1.12,4,4,0,0,1-1.89,1.89v.12c4.76,1.83,4.23,5.43,8.28,5.73.26,4.08-1,6.53-4.55,6.53-6.42,0-4.7-8-6.89-8h-.24l.09,7.54Z"/><path class="cls-1" d="M177.14,29.5V23.73h10v11.8c0,1.53.65,2.3,2,2.3a2.22,2.22,0,0,0,1.89-.91V27.28l-1.6-2.1,10-1.89V35.14l-.29,3.28H201v1.13c0,3.69-1.48,5.55-4.46,5.55a4,4,0,0,1-4.17-3.31h-.18c-.68,2-2.83,3.37-5.91,3.37a8.4,8.4,0,0,1-5-1.51c-1.54-1.06-2.54-3.28-2.54-6.23V29.64Z"/><path class="cls-1" d="M.8,61.27a2.8,2.8,0,0,0,1,.15c.68,0,1-.27,1-.8V52.93l-1.63-.14V47h9.43L15.81,55,21,47h9.43v5.77l-1.62.14v7.69c0,.53.35.8,1,.8a2.86,2.86,0,0,0,1-.15l.35,6.56a10.74,10.74,0,0,1-4.2.62c-4.16,0-6.17-1.3-6.17-5.41a17.57,17.57,0,0,1,.2-2.66H20.9L15.81,67.3l-5.08-6.92h-.12A16.41,16.41,0,0,1,10.82,63c0,4.11-2,5.41-6.18,5.41a10.81,10.81,0,0,1-4.2-.62Z"/><path class="cls-1" d="M35.89,49.86c2.45-2.19,5.88-3.28,10.25-3.28a56.16,56.16,0,0,1,7.1.44V58.43l-.3,3.28h1.92v1.12c0,3.7-1.47,5.56-4.46,5.56a4,4,0,0,1-4.17-3.31A7.15,7.15,0,0,1,40,68.45c-4.76,0-7.81-3.37-7.81-9.4Q32.22,53.16,35.89,49.86ZM42.3,60.74c1.54,0,2.81-1.48,2.81-3.73V54a7.31,7.31,0,0,0-.74-.06,3.55,3.55,0,0,0-2.9,1.24,4.48,4.48,0,0,0-1,2.93C40.44,59.88,41.06,60.74,42.3,60.74Z"/><path class="cls-1" d="M55.43,61.65a4,4,0,0,0,3.63-3.07,20.14,20.14,0,0,0,.8-2.81,16.66,16.66,0,0,1,2.37-6q2.43-3.19,8.33-3.19a58.64,58.64,0,0,1,6,.44V62.1l1.63.14V68h-11V62.24l1-.14L69,54.44h-.24c-.56,0-1,.59-1.36,1.77s-.71,2.69-1.12,4.62a19.56,19.56,0,0,1-1.45,4.49,5.21,5.21,0,0,1-5,3.13c-3,0-4.49-1.89-4.49-5A14.67,14.67,0,0,1,55.43,61.65Z"/><path class="cls-1" d="M79.4,68V62.24L81,62.1V52.93l-1.63-.14V47h10v6.15h2.4c5,0,8.19,2.54,8.19,7.3A7.18,7.18,0,0,1,97.82,66a8,8,0,0,1-5.62,2Zm9.82-5.56h1.45c1.33,0,1.77-.68,1.77-2a1.67,1.67,0,0,0-1.74-1.89H89.22ZM99.65,49a18.29,18.29,0,0,0,9.78-2.42V58.43l-.29,3.28h1.92v1.12c0,3.76-1.66,5.62-5,5.62s-5-1.86-5-5.62V51.22Z"/><path class="cls-1" d="M125.73,68.18l-2.52-6c-1.47,4.37-3.72,6.29-6.85,6.29a4.52,4.52,0,0,1-4.7-4.79,4.56,4.56,0,0,1,6.8-4l-1.81-2.92L111.86,47h9.67L124,52.88c1.48-4.38,3.73-6.3,6.86-6.3a4.52,4.52,0,0,1,4.7,4.79,4.56,4.56,0,0,1-6.8,4l1.8,2.92,4.79,9.7Z"/><path class="cls-1" d="M10.49,77.55c0-.82-.68-1.24-2.07-1.24A12,12,0,0,0,4.49,77a9.3,9.3,0,0,0-3.25,1.77L1.06,71.7a21.28,21.28,0,0,1,9-1.83c6.47,0,9.6,2.57,9.6,7a5.81,5.81,0,0,1-1.92,4.76c-1.42,1.27-4.11,2.07-8.13,2.4,0,.85.68,1.27,2,1.27a14.91,14.91,0,0,0,3.91-.59,12.42,12.42,0,0,0,3.54-1.57l.33,7A24.88,24.88,0,0,1,10,91.74c-6.74,0-9.66-2.69-9.66-7S3.69,78.09,10.49,77.55Z"/><path class="cls-1" d="M23.06,73.21a11.36,11.36,0,0,1,8.78-3.34A12.17,12.17,0,0,1,38,71.23c2.84,1.45,4.94,4.37,4.94,9.75a11.16,11.16,0,0,1-2.45,7.54,11.68,11.68,0,0,1-8.72,3.22,13.37,13.37,0,0,1-6.18-1.3C22.73,89,20.6,86.12,20.6,81,20.6,77.55,21.61,74.78,23.06,73.21Zm8.66,11.85q2.3,0,2.3-4.26c0-3-.62-4.25-2.24-4.25S29.47,78,29.47,80.8,30.09,85.06,31.72,85.06Z"/><path class="cls-1" d="M43.93,91.3V85.53l1.63-.14V76.22l-1.63-.14V70.31H57.26c4.64,0,7.24,2.69,7.24,7.39a7,7,0,0,1-2.33,5.47,9.74,9.74,0,0,1-6.3,2.25l-1.95.08v5.8Zm9.81-11.38H55a1.9,1.9,0,0,0,2-2.13,1.58,1.58,0,0,0-1.8-1.8H53.74Z"/><path class="cls-1" d="M67.85,73.21a11.35,11.35,0,0,1,8.77-3.34,12.19,12.19,0,0,1,6.12,1.36c2.84,1.45,4.94,4.37,4.94,9.75a11.16,11.16,0,0,1-2.46,7.54,11.64,11.64,0,0,1-8.71,3.22,13.37,13.37,0,0,1-6.18-1.3C67.52,89,65.39,86.12,65.39,81,65.39,77.55,66.4,74.78,67.85,73.21Zm8.66,11.85q2.3,0,2.3-4.26c0-3-.62-4.25-2.25-4.25s-2.3,1.42-2.3,4.25S74.88,85.06,76.51,85.06Z"/><path class="cls-1" d="M91.14,79.74a12.7,12.7,0,0,1,7-1.68c.74,0,1.45,0,2.18.08-.38-1.56-1.89-2-4.28-2a12.72,12.72,0,0,0-5.44,1.15l-1.18-6.47a26.33,26.33,0,0,1,7.39-.92c8,0,12.23,3.4,12.23,11.35,0,6.62-3.84,10.52-11.08,10.52a12.33,12.33,0,0,1-6.8-1.66,5.69,5.69,0,0,1-2.54-5.14A5.8,5.8,0,0,1,91.14,79.74Zm7.24,6.59c1.33,0,2-1.15,2-3.49-2.21,0-3.31.8-3.31,2.25A1.16,1.16,0,0,0,98.38,86.33Z"/><path class="cls-1" d="M112.34,73.21a11.36,11.36,0,0,1,8.78-3.34,12.17,12.17,0,0,1,6.11,1.36c2.84,1.45,4.94,4.37,4.94,9.75a11.21,11.21,0,0,1-2.45,7.54A11.68,11.68,0,0,1,121,91.74a13.37,13.37,0,0,1-6.18-1.3C112,89,109.88,86.12,109.88,81,109.88,77.55,110.89,74.78,112.34,73.21ZM121,85.06q2.3,0,2.3-4.26c0-3-.62-4.25-2.24-4.25s-2.31,1.42-2.31,4.25S119.37,85.06,121,85.06Z"/><path class="cls-1" d="M133.21,91.3V85.53l1.63-.14V76.22l-1.63-.14V70.31h13.42c4.85,0,7.47,2.1,7.47,5.38,0,2.63-1.18,4.14-3.57,4.49v.15c2.16.21,4.7,1.24,4.7,4.79,0,4.11-2.84,6.18-8.48,6.18Zm9.46-12.59h1.21c1.33,0,2-.62,2-1.87a1.58,1.58,0,0,0-1.8-1.8h-1.42Zm.68,7.53h1.53c1.33,0,1.78-.68,1.78-1.95a1.8,1.8,0,0,0-2-1.89h-1.33Z"/><path class="cls-1" d="M.44,114.59v-5.77l1.63-.14V99.51L.44,99.37V93.6H13.77C18.41,93.6,21,96.29,21,101a7,7,0,0,1-2.33,5.47,9.74,9.74,0,0,1-6.3,2.25l-2,.08v5.8Zm9.82-11.38h1.21a1.9,1.9,0,0,0,2-2.13,1.59,1.59,0,0,0-1.81-1.8H10.26Z"/><path class="cls-1" d="M24.36,96.5a11.36,11.36,0,0,1,8.78-3.34,12.13,12.13,0,0,1,6.12,1.36c2.83,1.45,4.93,4.37,4.93,9.75a11.16,11.16,0,0,1-2.45,7.54A11.68,11.68,0,0,1,33,115a13.37,13.37,0,0,1-6.18-1.3c-2.81-1.48-4.93-4.31-4.93-9.46C21.91,100.84,22.91,98.07,24.36,96.5ZM33,108.35c1.54,0,2.3-1.42,2.3-4.26s-.62-4.25-2.24-4.25-2.31,1.42-2.31,4.25S31.39,108.35,33,108.35Z"/><path class="cls-1" d="M47.62,96.71a11.65,11.65,0,0,1,8.72-3.55c5.47,0,8.22,1.89,8.22,5.7a4,4,0,0,1-4.37,4.26,4.33,4.33,0,0,1-4.35-3.58c-1.33.48-2.24,2.1-2.24,4.32a4.27,4.27,0,0,0,4.61,4.4,10.41,10.41,0,0,0,4.73-1l.79,6.85a27.36,27.36,0,0,1-6.85.89c-6.36,0-11.8-2.9-11.8-10.7A11.3,11.3,0,0,1,47.62,96.71Z"/><path class="cls-1" d="M67.85,96.71a11.61,11.61,0,0,1,8.71-3.55c5.47,0,8.22,1.89,8.22,5.7a4,4,0,0,1-4.37,4.26,4.34,4.34,0,0,1-4.35-3.58c-1.33.48-2.24,2.1-2.24,4.32a4.27,4.27,0,0,0,4.61,4.4,10.41,10.41,0,0,0,4.73-1l.79,6.85a27.36,27.36,0,0,1-6.85.89c-6.36,0-11.8-2.9-11.8-10.7A11.25,11.25,0,0,1,67.85,96.71Z"/><path class="cls-1" d="M85.52,99.37V93.6h10v11.8c0,1.53.65,2.3,2,2.3a2.24,2.24,0,0,0,1.9-.92V97.15l-1.6-2.1,10-1.89V105l-.29,3.28h1.92v1.13c0,3.69-1.48,5.55-4.47,5.55a4,4,0,0,1-4.16-3.31h-.18c-.68,2-2.84,3.37-5.91,3.37a8.43,8.43,0,0,1-5-1.51c-1.54-1.06-2.54-3.28-2.54-6.23V99.51Z"/><path class="cls-1" d="M110.12,99.37V93.6h10v11.8c0,1.53.65,2.3,2,2.3a2.21,2.21,0,0,0,1.89-.92V97.15l-1.59-2.1,10-1.89V105l-.3,3.28H134v1.13c0,3.69-1.48,5.55-4.46,5.55a4,4,0,0,1-4.17-3.31h-.18c-.68,2-2.83,3.37-5.91,3.37a8.4,8.4,0,0,1-5-1.51c-1.54-1.06-2.54-3.28-2.54-6.23V99.51Z"/></g></g></svg>